<?xml version="1.0" encoding="UTF-8"?>
<svg width="81px" height="20px" viewBox="0 0 81 20" version="1.1" xmlns="http://www.w3.org/2000/svg" xmlns:xlink="http://www.w3.org/1999/xlink">
    <!-- Generator: Sketch 41 (35326) - http://www.bohemiancoding.com/sketch -->
    <title>系统管理_选中</title>
    <desc>Created with Sketch.</desc>
    <defs>
        <path d="M6.903,0.233 L6.875,0.245 L4.158,1.741 L4.131,1.76 C3.66,2.087 3.481,2.73 3.714,3.254 C3.716,3.259 3.951,3.805 3.951,4.301 C3.951,5.81 2.727,7.036 1.222,7.036 L1.131,7.036 C0.692,7.026 0.333,7.413 0.22,8.014 C0.211,8.062 0,9.188 0,10.076 C0,10.963 0.211,12.09 0.22,12.137 C0.332,12.731 0.683,13.115 1.114,13.115 L1.131,13.115 L1.222,13.115 C2.727,13.115 3.951,14.342 3.951,15.85 C3.951,16.347 3.715,16.891 3.714,16.896 C3.481,17.42 3.66,18.063 4.128,18.392 L4.155,18.41 L6.729,19.852 L6.756,19.865 C6.911,19.933 7.081,19.968 7.261,19.968 C7.639,19.968 8.008,19.812 8.247,19.552 C8.549,19.223 9.6,18.285 10.441,18.285 C11.288,18.285 12.323,19.218 12.65,19.576 C12.889,19.842 13.26,20 13.642,20 C13.819,20 13.986,19.967 14.138,19.9 L14.166,19.888 L16.835,18.41 L16.862,18.392 C17.332,18.063 17.511,17.421 17.278,16.897 C17.276,16.891 17.041,16.347 17.041,15.85 C17.041,14.342 18.265,13.115 19.77,13.115 L19.861,13.115 C20.299,13.124 20.658,12.739 20.772,12.138 C20.78,12.09 20.992,10.963 20.992,10.076 C20.992,9.188 20.78,8.062 20.772,8.014 C20.658,7.413 20.299,7.027 19.861,7.036 L19.77,7.036 C18.265,7.036 17.041,5.81 17.041,4.301 C17.041,3.805 17.276,3.259 17.278,3.256 C17.511,2.731 17.332,2.087 16.862,1.759 L16.837,1.741 L14.211,0.28 L14.184,0.268 C14.029,0.2 13.858,0.166 13.677,0.166 C13.303,0.166 12.937,0.315 12.697,0.564 C12.376,0.897 11.365,1.757 10.551,1.757 C9.727,1.757 8.711,0.879 8.39,0.542 C8.148,0.286 7.779,0.134 7.402,0.134 C7.225,0.134 7.056,0.168 6.903,0.233 Z M4.583,17.729 C4.644,17.585 4.935,16.871 4.935,16.126 C4.935,13.902 3.189,12.082 0.998,11.967 C0.967,11.793 0.796,10.812 0.796,10.077 C0.796,9.34 0.967,8.359 0.998,8.185 C3.189,8.07 4.935,6.249 4.935,4.027 C4.935,3.285 4.648,2.574 4.584,2.425 L7.245,0.96 L7.255,0.96 C7.299,0.96 7.341,0.976 7.354,0.986 C7.397,1.031 7.772,1.417 8.31,1.801 C9.106,2.371 9.861,2.66 10.554,2.66 C11.238,2.66 11.987,2.376 12.779,1.817 C13.315,1.44 13.686,1.062 13.731,1.017 C13.743,1.008 13.785,0.992 13.828,0.992 C13.832,0.992 13.836,0.993 13.839,0.993 L16.409,2.424 C16.346,2.57 16.057,3.282 16.057,4.027 C16.057,6.249 17.804,8.07 19.994,8.184 C20.024,8.359 20.196,9.34 20.196,10.076 C20.196,10.812 20.024,11.794 19.994,11.967 C17.804,12.082 16.057,13.903 16.057,16.126 C16.057,16.869 16.345,17.581 16.408,17.728 L13.796,19.175 L13.792,19.175 C13.755,19.175 13.72,19.16 13.707,19.152 C13.66,19.101 13.282,18.694 12.737,18.289 C11.925,17.684 11.151,17.377 10.438,17.377 C9.733,17.377 8.965,17.679 8.157,18.272 C7.615,18.67 7.239,19.069 7.191,19.12 C7.166,19.134 7.136,19.141 7.107,19.141 L7.102,19.141 L4.583,17.729 Z" id="path-1"></path>
        <path d="M0.815,4.062 C0.815,6.07 2.446,7.704 4.45,7.704 C6.454,7.704 8.084,6.07 8.084,4.062 C8.084,2.053 6.454,0.419 4.45,0.419 C2.446,0.419 0.815,2.053 0.815,4.062 Z M1.65,4.061 C1.65,2.515 2.906,1.256 4.45,1.256 C5.994,1.256 7.25,2.515 7.25,4.061 C7.25,5.609 5.994,6.868 4.45,6.868 C2.906,6.868 1.65,5.609 1.65,4.061 Z" id="path-3"></path>
    </defs>
    <g id="Page-1" stroke="none" stroke-width="1" fill="none" fill-rule="evenodd">
        <g id="系统管理_选中" transform="translate(0.000000, -1.000000)">
            <text id="系统管理" font-family="PingFangSC-Regular, PingFang SC" font-size="12" font-weight="normal" fill="#5EB95E">
                <tspan x="33" y="15">系统管理</tspan>
            </text>
            <g id="Page-1">
                <g id="Group-3" transform="translate(0.000000, 0.865000)">
                    <mask id="mask-2" fill="white">
                        <use xlink:href="#path-1"></use>
                    </mask>
                    <use id="Clip-2" fill="#5EB95E" xlink:href="#path-1"></use>
                    <polygon id="Fill-1" fill="#5EB95E" mask="url(#mask-2)" points="-5 25 25.991 25 25.991 -4.865 -5 -4.865"></polygon>
                </g>
                <g id="Group-6" transform="translate(6.000000, 6.865000)">
                    <mask id="mask-4" fill="white">
                        <use xlink:href="#path-3"></use>
                    </mask>
                    <g id="Clip-5"></g>
                    <polygon id="Fill-4" fill="#5EB95E" mask="url(#mask-4)" points="-4.185 12.704 13.084 12.704 13.084 -4.581 -4.185 -4.581"></polygon>
                </g>
            </g>
        </g>
    </g>
</svg>